<svg width="115" height="29" viewBox="0 0 115 29" fill="none" xmlns="http://www.w3.org/2000/svg">
<path d="M4.96875 5.09375L5.10938 6.98438C6.30729 5.51562 7.92708 4.78125 9.96875 4.78125C12.1458 4.78125 13.6406 5.64062 14.4531 7.35938C15.6406 5.64062 17.3333 4.78125 19.5312 4.78125C21.3646 4.78125 22.7292 5.31771 23.625 6.39062C24.5208 7.45312 24.9688 9.05729 24.9688 11.2031V22H20.4375V11.2188C20.4375 10.2604 20.25 9.5625 19.875 9.125C19.5 8.67708 18.8385 8.45312 17.8906 8.45312C16.5365 8.45312 15.599 9.09896 15.0781 10.3906L15.0938 22H10.5781V11.2344C10.5781 10.2552 10.3854 9.54688 10 9.10938C9.61458 8.67188 8.95833 8.45312 8.03125 8.45312C6.75 8.45312 5.82292 8.98438 5.25 10.0469V22H0.734375V5.09375H4.96875ZM34.7656 15.6094L37.8906 5.09375H42.7344L35.9375 24.625L35.5625 25.5156C34.5521 27.724 32.8854 28.8281 30.5625 28.8281C29.9062 28.8281 29.2396 28.7292 28.5625 28.5312V25.1094L29.25 25.125C30.1042 25.125 30.7396 24.9948 31.1562 24.7344C31.5833 24.474 31.9167 24.0417 32.1562 23.4375L32.6875 22.0469L26.7656 5.09375H31.625L34.7656 15.6094ZM62.9844 17.3281C62.9844 16.776 62.7083 16.3438 62.1562 16.0312C61.6146 15.7083 60.7396 15.4219 59.5312 15.1719C55.5104 14.3281 53.5 12.6198 53.5 10.0469C53.5 8.54688 54.1198 7.29688 55.3594 6.29688C56.6094 5.28646 58.2396 4.78125 60.25 4.78125C62.3958 4.78125 64.1094 5.28646 65.3906 6.29688C66.6823 7.30729 67.3281 8.61979 67.3281 10.2344H62.8125C62.8125 9.58854 62.6042 9.05729 62.1875 8.64062C61.7708 8.21354 61.1198 8 60.2344 8C59.474 8 58.8854 8.17188 58.4688 8.51562C58.0521 8.85938 57.8438 9.29688 57.8438 9.82812C57.8438 10.3281 58.0781 10.7344 58.5469 11.0469C59.026 11.349 59.8281 11.6146 60.9531 11.8438C62.0781 12.0625 63.026 12.3125 63.7969 12.5938C66.1823 13.4688 67.375 14.9844 67.375 17.1406C67.375 18.6823 66.7135 19.9323 65.3906 20.8906C64.0677 21.8385 62.3594 22.3125 60.2656 22.3125C58.849 22.3125 57.5885 22.0625 56.4844 21.5625C55.3906 21.0521 54.5312 20.3594 53.9062 19.4844C53.2812 18.599 52.9688 17.6458 52.9688 16.625H57.25C57.2917 17.4271 57.5885 18.0417 58.1406 18.4688C58.6927 18.8958 59.4323 19.1094 60.3594 19.1094C61.224 19.1094 61.875 18.9479 62.3125 18.625C62.7604 18.2917 62.9844 17.8594 62.9844 17.3281ZM85.5156 13.7031C85.5156 16.3073 84.9219 18.3958 83.7344 19.9688C82.5573 21.5312 80.9635 22.3125 78.9531 22.3125C77.2448 22.3125 75.8646 21.7188 74.8125 20.5312V28.5H70.2969V5.09375H74.4844L74.6406 6.75C75.7344 5.4375 77.1615 4.78125 78.9219 4.78125C81.0052 4.78125 82.625 5.55208 83.7812 7.09375C84.9375 8.63542 85.5156 10.7604 85.5156 13.4688V13.7031ZM81 13.375C81 11.8021 80.7188 10.5885 80.1562 9.73438C79.6042 8.88021 78.7969 8.45312 77.7344 8.45312C76.3177 8.45312 75.3438 8.99479 74.8125 10.0781V17C75.3646 18.1146 76.349 18.6719 77.7656 18.6719C79.9219 18.6719 81 16.9062 81 13.375ZM87.625 13.3906C87.625 11.7135 87.9479 10.2188 88.5938 8.90625C89.2396 7.59375 90.1667 6.57812 91.375 5.85938C92.5938 5.14062 94.0052 4.78125 95.6094 4.78125C97.8906 4.78125 99.75 5.47917 101.188 6.875C102.635 8.27083 103.443 10.1667 103.609 12.5625L103.641 13.7188C103.641 16.3125 102.917 18.3958 101.469 19.9688C100.021 21.5312 98.0781 22.3125 95.6406 22.3125C93.2031 22.3125 91.2552 21.5312 89.7969 19.9688C88.349 18.4062 87.625 16.2812 87.625 13.5938V13.3906ZM92.1406 13.7188C92.1406 15.3229 92.4427 16.5521 93.0469 17.4062C93.651 18.25 94.5156 18.6719 95.6406 18.6719C96.7344 18.6719 97.5885 18.2552 98.2031 17.4219C98.8177 16.5781 99.125 15.2344 99.125 13.3906C99.125 11.8177 98.8177 10.599 98.2031 9.73438C97.5885 8.86979 96.724 8.4375 95.6094 8.4375C94.5052 8.4375 93.651 8.86979 93.0469 9.73438C92.4427 10.5885 92.1406 11.9167 92.1406 13.7188ZM111.828 0.9375V5.09375H114.719V8.40625H111.828V16.8438C111.828 17.4688 111.948 17.9167 112.188 18.1875C112.427 18.4583 112.885 18.5938 113.562 18.5938C114.062 18.5938 114.505 18.5573 114.891 18.4844V21.9062C114.005 22.1771 113.094 22.3125 112.156 22.3125C108.99 22.3125 107.375 20.7135 107.312 17.5156V8.40625H104.844V5.09375H107.312V0.9375H111.828Z" fill="#E1E1E6"/>
<path d="M44.75 19.7812C44.75 19.0625 44.9896 18.4792 45.4688 18.0312C45.9583 17.5833 46.5677 17.3594 47.2969 17.3594C48.0365 17.3594 48.6458 17.5833 49.125 18.0312C49.6146 18.4792 49.8594 19.0625 49.8594 19.7812C49.8594 20.4896 49.6198 21.0677 49.1406 21.5156C48.6615 21.9531 48.0469 22.1719 47.2969 22.1719C46.5573 22.1719 45.9479 21.9531 45.4688 21.5156C44.9896 21.0677 44.75 20.4896 44.75 19.7812Z" fill="#61DCFB"/>
</svg>
